<?xml version="1.0" encoding="UTF-8"?>
<!DOCTYPE svg PUBLIC "-//W3C//DTD SVG 1.1//EN" "http://www.w3.org/Graphics/SVG/1.1/DTD/svg11.dtd">
<svg xmlns="http://www.w3.org/2000/svg" version="1.1" width="1200px" height="1200px" style="shape-rendering:geometricPrecision; text-rendering:geometricPrecision; image-rendering:optimizeQuality; fill-rule:evenodd; clip-rule:evenodd" xmlns:xlink="http://www.w3.org/1999/xlink">
<g><path style="opacity:1" fill="#354e6a" d="M 766.5,388.5 C 767.833,454.167 767.833,519.833 766.5,585.5C 711.06,618.059 655.393,650.392 599.5,682.5C 543.5,650.167 487.5,617.833 431.5,585.5C 430.167,519.833 430.167,454.167 431.5,388.5C 487.5,356.167 543.5,323.833 599.5,291.5C 655.393,323.608 711.06,355.941 766.5,388.5 Z M 597.5,310.5 C 600.425,310.46 603.091,311.293 605.5,313C 654.003,341.419 702.67,369.586 751.5,397.5C 752.833,457.167 752.833,516.833 751.5,576.5C 701.122,606.022 650.455,635.022 599.5,663.5C 548.857,634.538 498.19,605.538 447.5,576.5C 446.167,516.833 446.167,457.167 447.5,397.5C 497.89,368.978 547.89,339.978 597.5,310.5 Z"/></g>
<g><path style="opacity:0.789" fill="#344d6a" d="M 766.5,388.5 C 767.833,420.993 768.5,453.826 768.5,487C 768.5,520.174 767.833,553.007 766.5,585.5C 767.833,519.833 767.833,454.167 766.5,388.5 Z"/></g>
<g><path style="opacity:1" fill="#354e6a" d="M 644.5,411.5 C 654.5,411.5 664.5,411.5 674.5,411.5C 674.5,421.833 674.5,432.167 674.5,442.5C 664.5,442.5 654.5,442.5 644.5,442.5C 644.5,432.167 644.5,421.833 644.5,411.5 Z"/></g>
<g><path style="opacity:0.469" fill="#344d6a" d="M 603.5,420.5 C 602.391,420.557 601.391,420.89 600.5,421.5C 601.053,419.448 602.053,419.115 603.5,420.5 Z"/></g>
<g><path style="opacity:1" fill="#354e6a" d="M 603.5,420.5 C 610.802,425.144 617.802,430.144 624.5,435.5C 625.11,436.391 625.443,437.391 625.5,438.5C 620.212,446.454 614.545,454.12 608.5,461.5C 607.893,461.376 607.56,461.043 607.5,460.5C 607.027,459.094 606.027,458.427 604.5,458.5C 602.77,457.974 601.436,456.974 600.5,455.5C 600.027,454.094 599.027,453.427 597.5,453.5C 592.617,450.891 588.284,447.557 584.5,443.5C 589.503,435.845 594.836,428.511 600.5,421.5C 601.391,420.89 602.391,420.557 603.5,420.5 Z"/></g>
<g><path style="opacity:0.469" fill="#344d6a" d="M 624.5,435.5 C 626.552,436.053 626.885,437.053 625.5,438.5C 625.443,437.391 625.11,436.391 624.5,435.5 Z"/></g>
<g><path style="opacity:0.403" fill="#344d6a" d="M 597.5,453.5 C 599.027,453.427 600.027,454.094 600.5,455.5C 598.973,455.573 597.973,454.906 597.5,453.5 Z"/></g>
<g><path style="opacity:1" fill="#354e6a" d="M 524.5,456.5 C 534.5,456.5 544.5,456.5 554.5,456.5C 554.5,466.833 554.5,477.167 554.5,487.5C 544.5,487.5 534.5,487.5 524.5,487.5C 524.5,477.167 524.5,466.833 524.5,456.5 Z"/></g>
<g><path style="opacity:0.469" fill="#344d6a" d="M 604.5,458.5 C 606.027,458.427 607.027,459.094 607.5,460.5C 605.973,460.573 604.973,459.906 604.5,458.5 Z"/></g>
<g><path style="opacity:1" fill="#354e6a" d="M 639.5,503.5 C 637.973,503.427 636.973,504.094 636.5,505.5C 634.909,507.633 632.909,509.299 630.5,510.5C 629.833,510.167 629.167,509.833 628.5,509.5C 626.937,508.055 625.604,506.389 624.5,504.5C 624.573,502.973 623.906,501.973 622.5,501.5C 618.853,496.903 615.186,492.236 611.5,487.5C 615.944,482.781 620.944,478.781 626.5,475.5C 628.027,475.573 629.027,474.906 629.5,473.5C 631.355,471.967 633.188,470.3 635,468.5C 641.741,476.072 647.907,484.072 653.5,492.5C 649.205,496.647 644.538,500.313 639.5,503.5 Z"/></g>
<g><path style="opacity:0.469" fill="#344d6a" d="M 629.5,473.5 C 629.027,474.906 628.027,475.573 626.5,475.5C 626.973,474.094 627.973,473.427 629.5,473.5 Z"/></g>
<g><path style="opacity:1" fill="#364f6b" d="M 524.5,494.5 C 534.5,494.5 544.5,494.5 554.5,494.5C 554.5,504.5 554.5,514.5 554.5,524.5C 544.5,524.5 534.5,524.5 524.5,524.5C 524.5,514.5 524.5,504.5 524.5,494.5 Z"/></g>
<g><path style="opacity:1" fill="#354e6a" d="M 561.5,494.5 C 571.833,494.5 582.167,494.5 592.5,494.5C 592.5,504.5 592.5,514.5 592.5,524.5C 582.167,524.5 571.833,524.5 561.5,524.5C 561.5,514.5 561.5,504.5 561.5,494.5 Z"/></g>
<g><path style="opacity:0.469" fill="#344d6a" d="M 622.5,501.5 C 623.906,501.973 624.573,502.973 624.5,504.5C 623.094,504.027 622.427,503.027 622.5,501.5 Z"/></g>
<g><path style="opacity:0.469" fill="#344d6a" d="M 639.5,503.5 C 639.027,504.906 638.027,505.573 636.5,505.5C 636.973,504.094 637.973,503.427 639.5,503.5 Z"/></g>
<g><path style="opacity:0.359" fill="#334d6a" d="M 628.5,509.5 C 629.167,509.833 629.833,510.167 630.5,510.5C 629.377,511.757 628.711,511.424 628.5,509.5 Z"/></g>
<g><path style="opacity:0.52" fill="#344d6a" d="M 561.5,531.5 C 571.833,531.5 582.167,531.5 592.5,531.5C 592.5,541.833 592.5,552.167 592.5,562.5C 582.167,562.5 571.833,562.5 561.5,562.5C 561.5,552.167 561.5,541.833 561.5,531.5 Z"/></g>
<g><path style="opacity:1" fill="#354e6a" d="M 524.5,531.5 C 534.5,531.5 544.5,531.5 554.5,531.5C 554.5,541.833 554.5,552.167 554.5,562.5C 544.5,562.5 534.5,562.5 524.5,562.5C 524.5,552.167 524.5,541.833 524.5,531.5 Z"/></g>
<g><path style="opacity:1" fill="#364f6b" d="M 562.5,532.5 C 572.167,532.5 581.833,532.5 591.5,532.5C 591.5,542.167 591.5,551.833 591.5,561.5C 581.833,561.5 572.167,561.5 562.5,561.5C 562.5,551.833 562.5,542.167 562.5,532.5 Z"/></g>
<g><path style="opacity:1" fill="#354e6a" d="M 599.5,531.5 C 609.5,531.5 619.5,531.5 629.5,531.5C 629.5,541.833 629.5,552.167 629.5,562.5C 619.5,562.5 609.5,562.5 599.5,562.5C 599.5,552.167 599.5,541.833 599.5,531.5 Z"/></g>
<g><path style="opacity:1" fill="#354e6a" d="M 453.5,776.5 C 453.333,795.17 453.5,813.836 454,832.5C 454.717,831.956 455.217,831.289 455.5,830.5C 456.781,827.553 458.781,825.219 461.5,823.5C 462.906,823.027 463.573,822.027 463.5,820.5C 464.5,818.833 465.833,817.5 467.5,816.5C 468.906,816.027 469.573,815.027 469.5,813.5C 470.5,811.833 471.833,810.5 473.5,809.5C 474.906,809.027 475.573,808.027 475.5,806.5C 483.174,806.334 490.841,806.5 498.5,807C 496.667,809.998 494.334,812.498 491.5,814.5C 490.094,814.973 489.427,815.973 489.5,817.5C 488.167,819.5 486.5,821.167 484.5,822.5C 483.094,822.973 482.427,823.973 482.5,825.5C 481.167,827.5 479.5,829.167 477.5,830.5C 476.094,830.973 475.427,831.973 475.5,833.5C 475.047,834.458 474.381,835.292 473.5,836C 479.635,845.11 485.635,854.276 491.5,863.5C 491.427,865.027 492.094,866.027 493.5,866.5C 496.268,869.842 498.934,873.342 501.5,877C 493.833,877.667 486.167,877.667 478.5,877C 472.449,868.393 466.782,859.56 461.5,850.5C 461.214,848.067 460.548,848.067 459.5,850.5C 458.207,852.296 456.707,853.963 455,855.5C 454.5,862.826 454.334,870.159 454.5,877.5C 447.833,877.5 441.167,877.5 434.5,877.5C 434.5,843.833 434.5,810.167 434.5,776.5C 440.833,776.5 447.167,776.5 453.5,776.5 Z"/></g>
<g><path style="opacity:0.375" fill="#344e6a" d="M 453.5,776.5 C 454.167,794.5 454.833,812.5 455.5,830.5C 455.217,831.289 454.717,831.956 454,832.5C 453.5,813.836 453.333,795.17 453.5,776.5 Z"/></g>
<g><path style="opacity:1" fill="#354e6a" d="M 529.5,779.5 C 530.167,780.833 531.167,781.833 532.5,782.5C 535.384,787.381 534.717,791.881 530.5,796C 516.693,800.183 511.193,795.35 514,781.5C 518.798,777.171 523.964,776.505 529.5,779.5 Z"/></g>
<g><path style="opacity:1" fill="#354e6a" d="M 571.5,779.5 C 572.167,780.833 573.167,781.833 574.5,782.5C 577.384,787.381 576.717,791.881 572.5,796C 558.693,800.183 553.193,795.35 556,781.5C 560.798,777.171 565.964,776.505 571.5,779.5 Z"/></g>
<g><path style="opacity:0.534" fill="#344d6a" d="M 529.5,779.5 C 531.5,779.5 532.5,780.5 532.5,782.5C 531.167,781.833 530.167,780.833 529.5,779.5 Z"/></g>
<g><path style="opacity:0.534" fill="#344d6a" d="M 571.5,779.5 C 573.5,779.5 574.5,780.5 574.5,782.5C 573.167,781.833 572.167,780.833 571.5,779.5 Z"/></g>
<g><path style="opacity:1" fill="#354e6a" d="M 608.5,875.5 C 608.027,874.094 607.027,873.427 605.5,873.5C 605.573,871.973 604.906,870.973 603.5,870.5C 602.207,869.158 601.374,867.491 601,865.5C 600.5,850.504 600.333,835.504 600.5,820.5C 596.833,820.5 593.167,820.5 589.5,820.5C 589.5,815.833 589.5,811.167 589.5,806.5C 593.167,806.5 596.833,806.5 600.5,806.5C 600.5,800.5 600.5,794.5 600.5,788.5C 607.167,788.5 613.833,788.5 620.5,788.5C 620.5,794.5 620.5,800.5 620.5,806.5C 624.5,806.5 628.5,806.5 632.5,806.5C 632.5,811.167 632.5,815.833 632.5,820.5C 628.5,820.5 624.5,820.5 620.5,820.5C 620.333,833.837 620.5,847.171 621,860.5C 624.583,862.29 628.416,862.957 632.5,862.5C 632.5,867.5 632.5,872.5 632.5,877.5C 626.203,878.539 619.87,878.706 613.5,878C 611.509,877.626 609.842,876.793 608.5,875.5 Z"/></g>
<g><path style="opacity:1" fill="#354e6a" d="M 698.5,810.5 C 698.973,811.906 699.973,812.573 701.5,812.5C 707.049,817.588 710.549,823.922 712,831.5C 714.427,844.508 712.094,856.508 705,867.5C 695.176,877.438 683.343,880.938 669.5,878C 664.701,877.104 660.701,874.937 657.5,871.5C 657.027,870.094 656.027,869.427 654.5,869.5C 654.573,867.973 653.906,866.973 652.5,866.5C 649.063,863.299 646.896,859.299 646,854.5C 643.354,842.824 644.354,831.491 649,820.5C 649.949,818.907 651.115,817.574 652.5,816.5C 654.5,815.167 656.167,813.5 657.5,811.5C 657.5,810.833 657.833,810.5 658.5,810.5C 660.027,810.573 661.027,809.906 661.5,808.5C 666.803,805.385 672.637,804.051 679,804.5C 686.384,804.019 692.884,806.019 698.5,810.5 Z M 689.5,857.5 C 688.167,858.167 687.167,859.167 686.5,860.5C 675.007,865.28 667.84,861.614 665,849.5C 663.685,841.161 664.685,833.161 668,825.5C 675,818.833 682,818.833 689,825.5C 693.496,836.099 693.663,846.765 689.5,857.5 Z"/></g>
<g><path style="opacity:1" fill="#354e6a" d="M 765.5,804.5 C 766.568,805.434 767.901,805.768 769.5,805.5C 769.5,811.5 769.5,817.5 769.5,823.5C 764.321,823.091 758.988,823.757 753.5,825.5C 751.167,825.833 749.833,827.167 749.5,829.5C 749.5,845.5 749.5,861.5 749.5,877.5C 742.833,877.5 736.167,877.5 729.5,877.5C 729.5,853.833 729.5,830.167 729.5,806.5C 735.5,806.5 741.5,806.5 747.5,806.5C 747.187,809.247 747.52,811.914 748.5,814.5C 749.298,814.043 749.631,813.376 749.5,812.5C 749.5,811.833 749.833,811.5 750.5,811.5C 751.833,810.833 752.833,809.833 753.5,808.5C 756.687,805.075 760.687,803.741 765.5,804.5 Z"/></g>
<g><path style="opacity:0.504" fill="#344d6a" d="M 765.5,804.5 C 767.167,804.5 768.833,804.5 770.5,804.5C 770.823,811.022 770.49,817.355 769.5,823.5C 769.5,817.5 769.5,811.5 769.5,805.5C 767.901,805.768 766.568,805.434 765.5,804.5 Z"/></g>
<g><path style="opacity:0.469" fill="#344d6a" d="M 475.5,806.5 C 475.573,808.027 474.906,809.027 473.5,809.5C 473.427,807.973 474.094,806.973 475.5,806.5 Z"/></g>
<g><path style="opacity:1" fill="#354e6a" d="M 513.5,806.5 C 520.167,806.5 526.833,806.5 533.5,806.5C 533.5,830.167 533.5,853.833 533.5,877.5C 526.833,877.5 520.167,877.5 513.5,877.5C 513.5,853.833 513.5,830.167 513.5,806.5 Z"/></g>
<g><path style="opacity:1" fill="#354e6a" d="M 555.5,806.5 C 562.167,806.5 568.833,806.5 575.5,806.5C 575.5,830.167 575.5,853.833 575.5,877.5C 568.833,877.5 562.167,877.5 555.5,877.5C 555.5,853.833 555.5,830.167 555.5,806.5 Z"/></g>
<g><path style="opacity:0.59" fill="#344e69" d="M 747.5,806.5 C 748.167,808.5 748.833,810.5 749.5,812.5C 749.631,813.376 749.298,814.043 748.5,814.5C 747.52,811.914 747.187,809.247 747.5,806.5 Z"/></g>
<g><path style="opacity:0.461" fill="#344d6a" d="M 661.5,808.5 C 661.027,809.906 660.027,810.573 658.5,810.5C 658.973,809.094 659.973,808.427 661.5,808.5 Z"/></g>
<g><path style="opacity:0.534" fill="#344d6a" d="M 753.5,808.5 C 752.833,809.833 751.833,810.833 750.5,811.5C 750.5,809.5 751.5,808.5 753.5,808.5 Z"/></g>
<g><path style="opacity:0.469" fill="#344d6a" d="M 698.5,810.5 C 700.027,810.427 701.027,811.094 701.5,812.5C 699.973,812.573 698.973,811.906 698.5,810.5 Z"/></g>
<g><path style="opacity:0.505" fill="#344d6a" d="M 657.5,811.5 C 656.167,813.5 654.5,815.167 652.5,816.5C 653.167,813.833 654.833,812.167 657.5,811.5 Z"/></g>
<g><path style="opacity:0.469" fill="#344d6a" d="M 469.5,813.5 C 469.573,815.027 468.906,816.027 467.5,816.5C 467.427,814.973 468.094,813.973 469.5,813.5 Z"/></g>
<g><path style="opacity:0.469" fill="#344d6a" d="M 491.5,814.5 C 491.573,816.027 490.906,817.027 489.5,817.5C 489.427,815.973 490.094,814.973 491.5,814.5 Z"/></g>
<g><path style="opacity:0.469" fill="#344d6a" d="M 463.5,820.5 C 463.573,822.027 462.906,823.027 461.5,823.5C 461.427,821.973 462.094,820.973 463.5,820.5 Z"/></g>
<g><path style="opacity:0.469" fill="#344d6a" d="M 484.5,822.5 C 484.573,824.027 483.906,825.027 482.5,825.5C 482.427,823.973 483.094,822.973 484.5,822.5 Z"/></g>
<g><path style="opacity:0.422" fill="#334d6a" d="M 753.5,825.5 C 752.5,827.167 751.167,828.5 749.5,829.5C 749.833,827.167 751.167,825.833 753.5,825.5 Z"/></g>
<g><path style="opacity:0.469" fill="#344d6a" d="M 477.5,830.5 C 477.573,832.027 476.906,833.027 475.5,833.5C 475.427,831.973 476.094,830.973 477.5,830.5 Z"/></g>
<g><path style="opacity:0.359" fill="#334d6a" d="M 461.5,850.5 C 460.833,850.5 460.167,850.5 459.5,850.5C 460.548,848.067 461.214,848.067 461.5,850.5 Z"/></g>
<g><path style="opacity:0.403" fill="#334d6a" d="M 689.5,857.5 C 689.5,859.5 688.5,860.5 686.5,860.5C 687.167,859.167 688.167,858.167 689.5,857.5 Z"/></g>
<g><path style="opacity:0.461" fill="#344d6a" d="M 491.5,863.5 C 492.906,863.973 493.573,864.973 493.5,866.5C 492.094,866.027 491.427,865.027 491.5,863.5 Z"/></g>
<g><path style="opacity:0.469" fill="#344d6a" d="M 652.5,866.5 C 653.906,866.973 654.573,867.973 654.5,869.5C 653.094,869.027 652.427,868.027 652.5,866.5 Z"/></g>
<g><path style="opacity:0.469" fill="#344d6a" d="M 654.5,869.5 C 656.027,869.427 657.027,870.094 657.5,871.5C 655.973,871.573 654.973,870.906 654.5,869.5 Z"/></g>
<g><path style="opacity:0.403" fill="#344d6a" d="M 603.5,870.5 C 604.906,870.973 605.573,871.973 605.5,873.5C 604.094,873.027 603.427,872.027 603.5,870.5 Z"/></g>
<g><path style="opacity:0.469" fill="#344d6a" d="M 605.5,873.5 C 607.027,873.427 608.027,874.094 608.5,875.5C 606.973,875.573 605.973,874.906 605.5,873.5 Z"/></g>
</svg>
