<?xml version="1.0" encoding="UTF-8"?>
<!DOCTYPE svg PUBLIC "-//W3C//DTD SVG 1.1//EN" "http://www.w3.org/Graphics/SVG/1.1/DTD/svg11.dtd">
<svg xmlns="http://www.w3.org/2000/svg" version="1.1" width="1200px" height="1200px" style="shape-rendering:geometricPrecision; text-rendering:geometricPrecision; image-rendering:optimizeQuality; fill-rule:evenodd; clip-rule:evenodd" xmlns:xlink="http://www.w3.org/1999/xlink">
<g><path style="opacity:1" fill="#3ec0c8" d="M -0.5,-0.5 C 399.5,-0.5 799.5,-0.5 1199.5,-0.5C 1199.5,399.5 1199.5,799.5 1199.5,1199.5C 799.5,1199.5 399.5,1199.5 -0.5,1199.5C -0.5,799.5 -0.5,399.5 -0.5,-0.5 Z"/></g>
<g><path style="opacity:1" fill="#364f6b" d="M 598.5,292.5 C 655.095,324.578 711.595,356.911 768,389.5C 768.667,454.5 768.667,519.5 768,584.5C 711.752,616.707 655.585,649.04 599.5,681.5C 543.173,649.672 487.173,617.339 431.5,584.5C 430.333,519.503 430.167,454.503 431,389.5C 486.814,357.014 542.648,324.68 598.5,292.5 Z"/></g>
<g><path style="opacity:1" fill="#3ec0c8" d="M 597.5,309.5 C 598.873,309.343 600.207,309.51 601.5,310C 651.833,339.167 702.167,368.333 752.5,397.5C 753.833,457.167 753.833,516.833 752.5,576.5C 701.626,606.102 650.626,635.435 599.5,664.5C 548.374,635.435 497.374,606.102 446.5,576.5C 445.167,516.833 445.167,457.167 446.5,397.5C 497.06,368.392 547.394,339.059 597.5,309.5 Z"/></g>
<g><path style="opacity:1" fill="#364f6b" d="M 644.5,412.5 C 654.5,412.5 664.5,412.5 674.5,412.5C 674.5,422.167 674.5,431.833 674.5,441.5C 664.5,441.5 654.5,441.5 644.5,441.5C 644.5,431.833 644.5,422.167 644.5,412.5 Z"/></g>
<g><path style="opacity:1" fill="#364f6b" d="M 601.5,419.5 C 609.678,425.089 617.678,430.922 625.5,437C 620.397,445.266 614.73,453.099 608.5,460.5C 600.261,455.553 592.594,449.887 585.5,443.5C 590.854,435.443 596.187,427.443 601.5,419.5 Z"/></g>
<g><path style="opacity:1" fill="#364f6b" d="M 524.5,457.5 C 534.5,457.5 544.5,457.5 554.5,457.5C 554.5,467.167 554.5,476.833 554.5,486.5C 544.5,486.5 534.5,486.5 524.5,486.5C 524.5,476.833 524.5,467.167 524.5,457.5 Z"/></g>
<g><path style="opacity:1" fill="#364f6b" d="M 634.5,469.5 C 641.209,476.55 647.209,484.217 652.5,492.5C 645.054,498.73 637.387,504.73 629.5,510.5C 623.308,502.809 617.308,494.976 611.5,487C 619.351,481.303 627.018,475.47 634.5,469.5 Z"/></g>
<g><path style="opacity:1" fill="#364f6b" d="M 524.5,494.5 C 534.5,494.5 544.5,494.5 554.5,494.5C 554.5,504.5 554.5,514.5 554.5,524.5C 544.5,524.5 534.5,524.5 524.5,524.5C 524.5,514.5 524.5,504.5 524.5,494.5 Z"/></g>
<g><path style="opacity:1" fill="#364f6b" d="M 562.5,494.5 C 572.167,494.5 581.833,494.5 591.5,494.5C 591.5,504.5 591.5,514.5 591.5,524.5C 581.833,524.5 572.167,524.5 562.5,524.5C 562.5,514.5 562.5,504.5 562.5,494.5 Z"/></g>
<g><path style="opacity:1" fill="#364f6b" d="M 524.5,532.5 C 534.5,532.5 544.5,532.5 554.5,532.5C 554.5,542.167 554.5,551.833 554.5,561.5C 544.5,561.5 534.5,561.5 524.5,561.5C 524.5,551.833 524.5,542.167 524.5,532.5 Z"/></g>
<g><path style="opacity:1" fill="#364f6b" d="M 562.5,532.5 C 572.167,532.5 581.833,532.5 591.5,532.5C 591.5,542.167 591.5,551.833 591.5,561.5C 581.833,561.5 572.167,561.5 562.5,561.5C 562.5,551.833 562.5,542.167 562.5,532.5 Z"/></g>
<g><path style="opacity:1" fill="#364f6b" d="M 599.5,532.5 C 609.5,532.5 619.5,532.5 629.5,532.5C 629.5,542.167 629.5,551.833 629.5,561.5C 619.5,561.5 609.5,561.5 599.5,561.5C 599.5,551.833 599.5,542.167 599.5,532.5 Z"/></g>
<g><path style="opacity:1" fill="#364f6b" d="M 453.5,776.5 C 453.333,795.17 453.5,813.836 454,832.5C 454.717,831.956 455.217,831.289 455.5,830.5C 462.302,822.858 468.969,815.025 475.5,807C 482.856,806.169 490.189,806.335 497.5,807.5C 489.049,816.906 480.716,826.406 472.5,836C 481.833,849.667 491.167,863.333 500.5,877C 493.144,877.831 485.811,877.665 478.5,876.5C 472.735,867.291 466.735,858.291 460.5,849.5C 458.183,851.316 456.016,853.316 454,855.5C 453.5,862.826 453.334,870.159 453.5,877.5C 447.463,877.829 441.463,877.496 435.5,876.5C 435.291,875.914 434.957,875.414 434.5,875C 435.833,842.667 435.833,810.333 434.5,778C 440.653,776.545 446.986,776.045 453.5,776.5 Z"/></g>
<g><path style="opacity:1" fill="#3a8697" d="M 453.5,776.5 C 454.167,794.5 454.833,812.5 455.5,830.5C 455.217,831.289 454.717,831.956 454,832.5C 453.5,813.836 453.333,795.17 453.5,776.5 Z"/></g>
<g><path style="opacity:1" fill="#364f6b" d="M 518.5,778.5 C 532.517,777.073 536.517,782.573 530.5,795C 520.712,799.55 514.712,796.883 512.5,787C 513.418,783.305 515.418,780.472 518.5,778.5 Z"/></g>
<g><path style="opacity:1" fill="#364f6b" d="M 560.5,778.5 C 574.517,777.073 578.517,782.573 572.5,795C 562.712,799.55 556.712,796.883 554.5,787C 555.418,783.305 557.418,780.472 560.5,778.5 Z"/></g>
<g><path style="opacity:1" fill="#364f6b" d="M 600.5,788.5 C 606.833,788.5 613.167,788.5 619.5,788.5C 619.5,794.5 619.5,800.5 619.5,806.5C 623.5,806.5 627.5,806.5 631.5,806.5C 631.5,811.167 631.5,815.833 631.5,820.5C 627.5,820.5 623.5,820.5 619.5,820.5C 619.333,833.504 619.5,846.504 620,859.5C 620.936,861.708 622.602,863.042 625,863.5C 627.206,862.918 629.706,862.585 632.5,862.5C 633.074,867.648 632.407,872.482 630.5,877C 621.129,879.937 612.629,878.437 605,872.5C 602.477,868.931 601.144,864.931 601,860.5C 600.5,847.171 600.333,833.837 600.5,820.5C 597.167,820.5 593.833,820.5 590.5,820.5C 590.5,815.833 590.5,811.167 590.5,806.5C 593.833,806.5 597.167,806.5 600.5,806.5C 600.5,800.5 600.5,794.5 600.5,788.5 Z"/></g>
<g><path style="opacity:1" fill="#364f6b" d="M 674.5,804.5 C 696.866,804.035 709.533,814.869 712.5,837C 712.619,868.874 696.953,881.874 665.5,876C 654.606,871.402 648.106,863.236 646,851.5C 644.124,839.904 645.791,828.904 651,818.5C 656.967,810.604 664.8,805.937 674.5,804.5 Z"/></g>
<g><path style="opacity:1" fill="#364f6b" d="M 747.5,806.5 C 747.192,808.924 747.526,811.257 748.5,813.5C 749.107,813.376 749.44,813.043 749.5,812.5C 754.255,806.056 760.588,803.722 768.5,805.5C 769.496,811.463 769.829,817.463 769.5,823.5C 761.734,821.372 754.9,823.372 749,829.5C 748.5,845.497 748.333,861.497 748.5,877.5C 742.5,877.5 736.5,877.5 730.5,877.5C 730.229,854.738 729.896,831.905 729.5,809C 729.957,808.586 730.291,808.086 730.5,807.5C 736.128,806.505 741.794,806.171 747.5,806.5 Z"/></g>
<g><path style="opacity:1" fill="#364f6b" d="M 514.5,806.5 C 520.5,806.5 526.5,806.5 532.5,806.5C 532.5,830.167 532.5,853.833 532.5,877.5C 525.986,877.955 519.653,877.455 513.5,876C 514.208,852.713 514.542,829.546 514.5,806.5 Z"/></g>
<g><path style="opacity:1" fill="#364f6b" d="M 556.5,806.5 C 562.5,806.5 568.5,806.5 574.5,806.5C 574.5,830.167 574.5,853.833 574.5,877.5C 567.986,877.955 561.653,877.455 555.5,876C 556.098,852.735 556.432,829.568 556.5,806.5 Z"/></g>
<g><path style="opacity:1" fill="#3a8697" d="M 747.5,806.5 C 748.167,808.5 748.833,810.5 749.5,812.5C 749.44,813.043 749.107,813.376 748.5,813.5C 747.526,811.257 747.192,808.924 747.5,806.5 Z"/></g>
<g><path style="opacity:1" fill="#3ebdc6" d="M 675.5,819.5 C 685.321,819.152 691.154,823.818 693,833.5C 693.774,840.224 693.441,846.89 692,853.5C 685.956,864.696 677.956,866.362 668,858.5C 662.006,847.204 662.006,835.87 668,824.5C 670.17,822.177 672.67,820.51 675.5,819.5 Z"/></g>
</svg>
